# xmcd CD database file
#
# Track frame offsets:
#	150
#	11306
#	24066
#	38830
#	53199
#	68776
#	83319
#	91220
#	108500
#	121652
#
# Disc length: 1831 seconds
#
# Revision: 0
# Processed by: cddbd v1.5.1PL0 Copyright (c) Steve Scherf et al.
# Submitted via: CDex 1.40Release
#
DISCID=6207250a
DTITLE=Eric Diamond - They Call Me A Playboy
DYEAR=1998
DGENRE=Country
TTITLE0=Playboy
TTITLE1=Slide Off Of Your Stain Sheets
TTITLE2=Four In The Morning
TTITLE3=After The Loving
TTITLE4=Sioux City Sue
TTITLE5=Wild Side Of Life
TTITLE6=Live Fast, Love Hard, Die Young
TTITLE7=You're The Best Thing That Ever Happened To Me
TTITLE8=Cherokee Maiden
TTITLE9=I Won't Mention It Again
EXTD=YEAR: 1998 ID3G: 2
EXTT0=
EXTT1=
EXTT2=
EXTT3=
EXTT4=
EXTT5=
EXTT6=
EXTT7=
EXTT8=
EXTT9=
PLAYORDER=
